<svg width="311" height="61" viewBox="0 0 311 61" fill="none" xmlns="http://www.w3.org/2000/svg">
<path d="M35.4471 15.6481L42.0566 9.06404L32.9576 0L23.9381 8.9848L30.5874 15.6085L0 46.0781L14.9795 61L33 43.0489L51.0205 61L66 46.0781L35.4471 15.6481ZM32.9576 4.97307L37.0617 9.06139L33.0345 13.0731L28.9303 8.9848L32.9576 4.97307ZM32.9974 18.1809L61.0024 46.0781L57.2589 49.8073L32.9974 25.6392L8.73584 49.8073L4.99229 46.0781L32.9974 18.1809ZM32.9974 38.0758L14.9769 56.0269L11.2333 52.2978L32.9974 30.6175L54.7614 52.2978L51.0178 56.0269L32.9974 38.0758Z" fill="#B89669"/>
<path d="M92.0853 15.3301H93.6197L99.7549 26.2H96.326L95.162 23.9272H90.5613L89.3973 26.2H86L92.0853 15.3301ZM94.1951 21.77L92.8656 19.5288L91.5598 21.77H94.1951Z" fill="#0E1C33"/>
<path d="M100.422 26.2V15.3301H105.919C106.783 15.3301 107.585 15.5088 108.321 15.8687C109.056 16.2287 109.64 16.7148 110.07 17.327C110.501 17.9392 110.714 18.6066 110.714 19.3239C110.714 19.9256 110.564 20.4931 110.262 21.0212C109.96 21.552 109.542 22.0039 109.009 22.3822L111.132 26.1974H107.348L105.735 23.3097H103.856V26.1974H100.422V26.2ZM103.859 20.8504H105.966C106.492 20.8504 106.936 20.7007 107.304 20.4011C107.672 20.1016 107.856 19.7364 107.856 19.3002C107.856 18.864 107.672 18.4936 107.304 18.1862C106.936 17.8787 106.492 17.7263 105.966 17.7263H103.859V20.8504Z" fill="#0E1C33"/>
<path d="M112.645 15.3301H116.082V19.4684L121.093 15.3301H125.89L119.301 20.7874L125.783 26.1974H120.882L116.886 22.8473L116.085 23.5383V26.1974H112.648V15.3301H112.645Z" fill="#0E1C33"/>
<path d="M131.356 15.3301H132.89L139.025 26.2H135.596L134.432 23.9272H129.832L128.668 26.2H125.27L131.356 15.3301ZM133.463 21.77L132.133 19.5288L130.827 21.77H133.463Z" fill="#0E1C33"/>
<path d="M139.519 15.3301H140.904L147.086 20.4668V15.3301H150.523V26.2H149.099L142.948 21.0475V26.2H139.519V15.3301Z" fill="#0E1C33"/>
<path d="M156.792 15.3301H160.229V19.1925H164.365V15.3301H167.778V26.2H164.365V22.0643H160.229V26.2H156.792V15.3301Z" fill="#0E1C33"/>
<path d="M182.644 20.7723C182.644 21.5106 182.473 22.2174 182.129 22.8874C181.785 23.5574 181.322 24.1354 180.737 24.6189C180.151 25.1024 179.457 25.486 178.653 25.7724C177.849 26.0588 177.006 26.2006 176.125 26.2006C175.24 26.2006 174.394 26.0588 173.59 25.7724C172.786 25.486 172.092 25.1024 171.514 24.6189C170.933 24.1354 170.474 23.56 170.135 22.8874C169.793 22.2174 169.622 21.5106 169.622 20.7723C169.622 20.0392 169.793 19.335 170.135 18.665C170.476 17.995 170.936 17.4143 171.514 16.9256C172.092 16.4369 172.786 16.0507 173.59 15.7617C174.394 15.4726 175.24 15.3281 176.125 15.3281C177.305 15.3281 178.395 15.5725 179.397 16.0586C180.398 16.5473 181.191 17.2094 181.772 18.0449C182.352 18.8831 182.644 19.7922 182.644 20.7723ZM178.322 22.601C178.926 22.0886 179.231 21.4738 179.231 20.7565C179.231 20.0392 178.929 19.427 178.322 18.9199C177.715 18.4154 176.985 18.1606 176.123 18.1606C175.269 18.1606 174.538 18.4128 173.937 18.9199C173.335 19.427 173.033 20.0392 173.033 20.7565C173.033 21.4738 173.335 22.0886 173.942 22.601C174.549 23.1134 175.274 23.3682 176.125 23.3682C176.985 23.3682 177.718 23.1134 178.322 22.601Z" fill="#0E1C33"/>
<path d="M184.447 15.3301H187.883V23.3281H194.662V26.2H184.447V15.3301Z" fill="#0E1C33"/>
<path d="M196.346 15.3301H201.184C202.069 15.3301 202.915 15.472 203.719 15.7584C204.523 16.0448 205.217 16.4284 205.8 16.9145C206.383 17.4005 206.846 17.9786 207.187 18.6486C207.532 19.3186 207.702 20.0228 207.702 20.7558C207.702 21.4942 207.532 22.201 207.187 22.871C206.843 23.541 206.381 24.1216 205.8 24.6104C205.219 25.0991 204.526 25.4853 203.719 25.7717C202.915 26.0581 202.069 26.2 201.184 26.2H196.346V15.3301ZM201.197 23.3833C202.051 23.3833 202.781 23.1311 203.383 22.624C203.985 22.1169 204.287 21.5099 204.287 20.8031C204.287 20.1016 203.985 19.4973 203.378 18.9954C202.773 18.4909 202.045 18.2413 201.194 18.2413H199.746V23.3859H201.197V23.3833Z" fill="#0E1C33"/>
<path d="M209.534 15.3301H212.97V26.2H209.534V15.3301Z" fill="#0E1C33"/>
<path d="M215.364 15.3301H216.749L222.931 20.4668V15.3301H226.368V26.2H224.944L218.793 21.0475V26.2H215.364V15.3301Z" fill="#0E1C33"/>
<path d="M234.529 20.3568H241.048V20.7588C241.048 21.4918 240.877 22.1934 240.536 22.8634C240.194 23.5308 239.737 24.1088 239.164 24.5949C238.589 25.081 237.905 25.4672 237.107 25.7589C236.311 26.0505 235.47 26.1977 234.59 26.2029H234.574H234.558H234.542H234.526C233.641 26.2029 232.795 26.061 231.991 25.7746C231.187 25.4882 230.493 25.1046 229.915 24.6212C229.335 24.1377 228.875 23.5623 228.536 22.8897C228.194 22.2196 228.023 21.5128 228.023 20.7745V20.7588V20.743C228.029 20.0099 228.202 19.3084 228.546 18.6384C228.891 17.971 229.35 17.3956 229.931 16.9121C230.509 16.4287 231.2 16.0451 232.004 15.7613C232.808 15.4775 233.649 15.333 234.529 15.333H234.545H234.561H234.576H234.592H234.608H234.624H234.639H234.671H234.687H234.71H234.726H234.742H234.758H234.773H234.821H234.837C234.847 15.333 234.863 15.3383 234.884 15.3488H234.9H234.931H234.994H235.01C236.61 15.4434 237.982 15.9636 239.125 16.9069C239.23 16.9962 239.427 17.1854 239.716 17.4744L236.741 18.9379L236.702 18.9064C236.071 18.4229 235.349 18.1838 234.532 18.1838C233.699 18.1838 232.976 18.4308 232.369 18.9274C231.76 19.424 231.458 20.0362 231.458 20.764C231.458 21.4918 231.765 22.1067 232.382 22.6085C233 23.1104 233.715 23.36 234.534 23.36C235.044 23.36 235.522 23.2628 235.974 23.0683C236.426 22.8739 236.789 22.6085 237.067 22.2748H234.534V20.3568H234.529Z" fill="#0E1C33"/>
<path d="M252.094 20.3568H258.613V20.7588C258.613 21.4918 258.442 22.1934 258.1 22.8634C257.759 23.5308 257.301 24.1088 256.729 24.5949C256.153 25.081 255.47 25.4672 254.671 25.7589C253.875 26.0505 253.034 26.1977 252.154 26.2029H252.138H252.123H252.107H252.091C251.206 26.2029 250.36 26.061 249.556 25.7746C248.752 25.4882 248.058 25.1046 247.48 24.6212C246.899 24.1377 246.439 23.5623 246.1 22.8897C245.759 22.2196 245.588 21.5128 245.588 20.7745V20.7588V20.743C245.593 20.0099 245.767 19.3084 246.111 18.6384C246.455 17.971 246.915 17.3956 247.496 16.9121C248.074 16.4287 248.765 16.0451 249.569 15.7613C250.37 15.4749 251.214 15.333 252.094 15.333H252.11H252.125H252.141H252.157H252.173H252.188H252.204H252.236H252.251H252.275H252.291H252.307H252.322H252.338H252.385H252.401C252.412 15.333 252.427 15.3383 252.448 15.3488H252.464H252.496H252.559H252.575C254.175 15.4434 255.546 15.9636 256.689 16.9069C256.794 16.9962 256.991 17.1854 257.28 17.4744L254.306 18.9379L254.267 18.9064C253.636 18.4229 252.914 18.1838 252.096 18.1838C251.264 18.1838 250.541 18.4308 249.934 18.9274C249.324 19.424 249.022 20.0362 249.022 20.764C249.022 21.4918 249.33 22.1067 249.947 22.6085C250.565 23.1104 251.279 23.36 252.099 23.36C252.609 23.36 253.087 23.2628 253.539 23.0683C253.991 22.8739 254.353 22.6085 254.632 22.2748H252.099V20.3568H252.094Z" fill="#0E1C33"/>
<path d="M259.753 26.2V15.3301H265.25C266.114 15.3301 266.915 15.5088 267.654 15.8687C268.389 16.2287 268.973 16.7148 269.404 17.327C269.835 17.9392 270.047 18.6066 270.047 19.3239C270.047 19.9256 269.898 20.4931 269.595 21.0212C269.293 21.552 268.876 22.0039 268.342 22.3822L270.465 26.1974H266.682L265.068 23.3097H263.19V26.1974H259.753V26.2ZM263.19 20.8504H265.297C265.822 20.8504 266.266 20.7007 266.634 20.4011C267.002 20.1016 267.183 19.7364 267.183 19.3002C267.183 18.864 267 18.4936 266.634 18.1862C266.266 17.8787 265.822 17.7263 265.297 17.7263H263.19V20.8504Z" fill="#0E1C33"/>
<path d="M284.393 20.7723C284.393 21.5106 284.223 22.2174 283.878 22.8874C283.534 23.5574 283.072 24.1354 282.486 24.6189C281.9 25.1024 281.206 25.486 280.402 25.7724C279.598 26.0588 278.755 26.2006 277.875 26.2006C276.989 26.2006 276.143 26.0588 275.339 25.7724C274.535 25.486 273.841 25.1024 273.263 24.6189C272.683 24.1354 272.223 23.56 271.884 22.8874C271.542 22.2174 271.372 21.5106 271.372 20.7723C271.372 20.0392 271.542 19.335 271.884 18.665C272.226 17.995 272.685 17.4143 273.263 16.9256C273.841 16.4369 274.535 16.0507 275.339 15.7617C276.143 15.4726 276.989 15.3281 277.875 15.3281C279.054 15.3281 280.145 15.5725 281.146 16.0586C282.147 16.5473 282.94 17.2094 283.521 18.0449C284.102 18.8805 284.393 19.7922 284.393 20.7723ZM280.074 22.601C280.678 22.0886 280.983 21.4738 280.983 20.7565C280.983 20.0392 280.681 19.427 280.074 18.9199C279.467 18.4154 278.736 18.1606 277.875 18.1606C277.021 18.1606 276.29 18.4128 275.689 18.9199C275.087 19.427 274.785 20.0392 274.785 20.7565C274.785 21.4738 275.087 22.0886 275.694 22.601C276.301 23.1134 277.026 23.3682 277.877 23.3682C278.734 23.3682 279.467 23.1134 280.074 22.601Z" fill="#0E1C33"/>
<path d="M291.175 26.2C290.232 26.2 289.362 26.0108 288.571 25.6298C287.78 25.2488 287.158 24.7312 286.703 24.0717C286.248 23.4149 286.022 22.6949 286.022 21.9119V15.3301H289.467V21.8673C289.467 22.2561 289.633 22.5872 289.966 22.8657C290.3 23.1442 290.702 23.2835 291.172 23.2835C291.64 23.2835 292.039 23.1442 292.376 22.8657C292.712 22.5872 292.88 22.2561 292.88 21.8673V15.3301H296.317V21.9119C296.317 22.6923 296.086 23.4122 295.626 24.0717C295.163 24.7286 294.538 25.2488 293.75 25.6298C292.962 26.0082 292.102 26.2 291.175 26.2Z" fill="#0E1C33"/>
<path d="M298.613 15.3301H304.11C304.974 15.3301 305.776 15.5088 306.514 15.8687C307.25 16.2287 307.833 16.7148 308.264 17.327C308.695 17.9392 308.908 18.6066 308.908 19.3239C308.908 20.0412 308.695 20.7085 308.272 21.3207C307.846 21.933 307.271 22.419 306.54 22.7764C305.813 23.1337 305.022 23.3124 304.173 23.3124H302.05V26.2H298.613V15.3301ZM304.16 20.8504C304.685 20.8504 305.129 20.7007 305.497 20.4011C305.865 20.1016 306.046 19.7364 306.046 19.3002C306.046 18.864 305.862 18.4936 305.497 18.1862C305.129 17.8787 304.685 17.7263 304.16 17.7263H302.053V20.8478H304.16V20.8504Z" fill="#0E1C33"/>
<path d="M89.0532 34.1277L90.1278 35.176L91.2656 34.0357L90.1147 32.9111L89.0532 33.9464L87.9917 32.9111L86.854 34.0357L88.0048 35.176L89.0532 34.1277Z" fill="#B89669"/>
<path d="M99.6944 33.9075L98.5278 32.7803L97.3901 33.9075L98.5541 35.0478L99.6944 33.9075Z" fill="#B89669"/>
<path d="M106.568 39.564C106.568 40.5729 106.084 41.0774 105.118 41.0774C105.115 41.0774 105.112 41.0774 105.112 41.0774C105.11 41.0774 105.107 41.0774 105.107 41.0774C104.545 41.0774 104.014 40.904 103.515 40.5598C103.549 40.3969 103.567 40.2103 103.567 40.0027L103.58 38.8756C103.588 38.0295 103.323 37.3385 102.784 36.8051C102.246 36.2691 101.557 36.0011 100.719 36.0011C100.073 36.0011 99.3975 36.1088 98.6934 36.3243C97.9892 36.5397 96.9986 36.9338 95.7217 37.5014V36.0904L94.3107 36.2848L94.3239 41.0748H93.1205C92.7395 41.0748 92.4636 40.9802 92.2928 40.791C92.1194 40.6018 92.0327 40.2865 92.0327 39.8451L92.0196 35.5859L90.6217 35.7804V36.545C90.0595 36.3374 89.5287 36.2349 89.0295 36.2349C88.1572 36.2349 87.4346 36.5555 86.8618 37.1992C86.289 37.843 86 38.6154 86 39.5219C86 40.4205 86.2838 41.1693 86.8539 41.7737C87.4241 42.378 88.1493 42.6802 89.0295 42.6802C89.7205 42.6802 90.4825 42.4647 91.3207 42.0338C91.7095 42.3885 92.3086 42.5645 93.1205 42.5645H94.9965H100.693C101.762 42.5645 102.543 42.2703 103.037 41.6843C103.649 42.2703 104.34 42.5645 105.107 42.5645C106.056 42.5645 106.77 42.3438 107.248 41.905C107.727 41.4663 107.966 40.8304 107.966 40.0027V36.093L106.555 36.2875L106.568 39.564ZM89.0269 41.2718C88.525 41.2639 88.1151 41.0905 87.7972 40.7542C87.4766 40.4179 87.319 40.0001 87.319 39.4983C87.319 38.9728 87.4845 38.5287 87.8182 38.1714C88.1493 37.814 88.5749 37.6354 89.0925 37.6354C89.4814 37.6354 89.9938 37.7484 90.6323 37.9717V40.0027C90.6323 40.3391 90.6585 40.636 90.7111 40.8961C90.1567 41.1562 89.597 41.2797 89.0269 41.2718ZM102.167 39.7058C102.167 40.1446 102.041 40.4836 101.786 40.7227C101.531 40.9591 101.171 41.0774 100.706 41.0774H95.7217V38.7337C97.1458 38.1898 98.139 37.8403 98.6986 37.6853C99.2583 37.5303 99.8285 37.4515 100.407 37.4515C100.924 37.4515 101.347 37.5986 101.676 37.8929C102.004 38.1871 102.167 38.5708 102.167 39.0437V39.7058Z" fill="#B89669"/>
<path d="M105.401 44.5449L106.568 45.6721L107.706 44.5449L106.542 43.4072L105.401 44.5449Z" fill="#B89669"/>
<path d="M151.406 34.1674L152.481 35.2158L153.618 34.0754L152.467 32.9482L151.406 33.9861L150.344 32.9482L149.204 34.0754L150.358 35.2158L151.406 34.1674Z" fill="#B89669"/>
<path d="M156.558 39.5118C156.558 40.5549 156.08 41.0778 155.121 41.0778C155.119 41.0778 155.116 41.0778 155.113 41.0778C155.111 41.0778 155.111 41.0778 155.108 41.0778C154.462 41.0778 153.913 41.0489 153.463 40.9885C154.094 40.4025 154.409 39.7115 154.409 38.918C154.409 38.1508 154.136 37.4992 153.587 36.9632C153.038 36.4271 152.341 36.1618 151.495 36.1618C150.657 36.1618 149.961 36.4271 149.404 36.9579C148.847 37.4886 148.568 38.1455 148.568 38.9311C148.568 39.743 148.884 40.4367 149.514 41.0147C149.083 41.0568 148.518 41.0804 147.819 41.0804H145.308H142.796H140.284H137.772H135.26H132.748H130.236H127.724H125.213H122.701H120.189H117.677H115.165H112.653C112.651 41.0804 112.648 41.0804 112.648 41.0804C112.645 41.0804 112.643 41.0804 112.643 41.0804C111.684 41.0804 111.205 40.5575 111.205 39.5144V33.1191L109.794 33.3136L109.808 39.927C109.808 41.6874 110.756 42.5676 112.656 42.5676H115.168H117.68H120.191H122.703H125.215H127.727H130.239H132.751H135.263H137.775H140.286H142.798H145.31H147.822C149.288 42.5676 150.536 42.3942 151.564 42.05C152.693 42.3942 153.876 42.5676 155.111 42.5676C157.018 42.5676 157.972 41.6874 157.972 39.927V33.1191L156.574 33.3136L156.558 39.5118ZM152.615 40.1345C152.326 40.463 151.945 40.7126 151.469 40.886C151.004 40.7388 150.631 40.5024 150.35 40.1739C150.069 39.8455 149.929 39.4829 149.929 39.0862C149.929 38.629 150.071 38.2559 150.358 37.9668C150.641 37.6778 151.009 37.5333 151.458 37.5333C151.908 37.5333 152.283 37.6804 152.591 37.9747C152.898 38.269 153.051 38.6395 153.051 39.0888C153.048 39.4566 152.904 39.8061 152.615 40.1345Z" fill="#B89669"/>
<path d="M160.066 42.5673H161.477V33.1162L160.066 33.3106V42.5673Z" fill="#B89669"/>
<path d="M171.987 41.1562C171.987 42.0811 171.793 42.7616 171.404 43.2004C171.015 43.6392 170.424 43.8599 169.63 43.8599C168.863 43.8599 168.272 43.6681 167.857 43.2845C167.441 42.9009 167.231 42.3281 167.223 41.5688C167.223 40.8515 167.365 40.058 167.652 39.1856L166.511 38.8756C166.13 40.0317 165.941 41.059 165.941 41.9576C165.941 43.0796 166.259 43.9256 166.9 44.4958C167.539 45.0659 168.437 45.3497 169.593 45.3497C170.862 45.3497 171.811 44.9924 172.442 44.2751C173.072 43.5578 173.387 42.5751 173.387 41.3244V36.0957L171.99 36.2901V41.1562H171.987Z" fill="#B89669"/>
<path d="M170.692 36.2375L169.528 35.1104L168.387 36.2375L169.554 37.3752L170.692 36.2375Z" fill="#B89669"/>
<path d="M227.078 37.725C226.5 37.2336 225.732 36.9866 224.773 36.9866H222.755L226.263 33.1426L224.905 32.4043L221.1 36.9735L221.851 38.282H224.894C225.404 38.282 225.803 38.4081 226.098 38.663C226.392 38.9178 226.536 39.2594 226.536 39.6929C226.536 40.1238 226.387 40.4628 226.09 40.7098C225.793 40.9568 225.388 41.0776 224.878 41.0776H220.853H218.341H215.829H213.317H210.806H208.294H205.782H203.27H200.758H198.246H195.734H193.222H190.711H188.199H185.687H183.175H180.663H178.151C178.149 41.0776 178.146 41.0776 178.146 41.0776C178.143 41.0776 178.141 41.0776 178.141 41.0776C177.182 41.0776 176.703 40.5548 176.703 39.5116V33.1163L175.292 33.3108L175.306 39.9242C175.306 41.6846 176.254 42.5648 178.154 42.5648H180.666H183.178H185.689H188.201H190.713H193.225H195.737H198.249H200.761H203.273H205.784H208.296H210.808H213.32H215.832H218.344H220.856H224.947C225.869 42.5648 226.602 42.3099 227.141 41.8002C227.679 41.2905 227.95 40.5915 227.95 39.7034C227.945 38.8784 227.656 38.2163 227.078 37.725Z" fill="#B89669"/>
<path d="M230.236 42.1783C230.236 43.5078 229.516 44.1726 228.073 44.1726L228.189 45.3497C229.345 45.3497 230.207 45.1001 230.772 44.6061C231.337 44.1095 231.62 43.3187 231.62 42.2309V36.0957L230.223 36.2901L230.236 42.1783Z" fill="#B89669"/>
<path d="M233.51 42.5669H234.92V34.7344L233.51 34.9288V42.5669Z" fill="#B89669"/>
<path d="M233.938 32.6249C233.938 32.4778 233.993 32.3569 234.106 32.2623C234.219 32.1677 234.361 32.1204 234.534 32.1204C234.75 32.1204 235.026 32.1861 235.362 32.3149V31.5634C234.965 31.4005 234.611 31.3164 234.3 31.3164C233.956 31.3164 233.667 31.4241 233.439 31.6396C233.21 31.855 233.094 32.1283 233.094 32.4541C233.094 32.7221 233.155 32.9586 233.276 33.1662H232.629V34.0726H235.606L235.801 33.1662H234.132C234.004 33.0138 233.938 32.8325 233.938 32.6249Z" fill="#B89669"/>
<path d="M242.377 34.1277L243.452 35.176L244.59 34.0357L243.439 32.9111L242.377 33.9464L241.316 32.9111L240.176 34.0357L241.329 35.176L242.377 34.1277Z" fill="#B89669"/>
<path d="M248.357 39.2664C248.357 38.7671 248.531 38.3651 248.875 38.063C249.219 37.7608 249.669 37.6111 250.22 37.6111C250.625 37.6111 251.221 37.724 252.007 37.9474L252.396 36.744C251.369 36.3998 250.567 36.2264 249.989 36.2264C249.125 36.2264 248.413 36.4839 247.848 37.0041C247.283 37.5217 246.999 38.1865 246.999 38.9984C246.999 39.6894 247.186 40.3804 247.556 41.0688C247.322 41.0767 246.952 41.082 246.442 41.082C246.061 41.082 245.785 40.9874 245.614 40.7982C245.441 40.609 245.354 40.2937 245.354 39.8523L245.341 35.5879L243.943 35.7823V36.5469C243.381 36.3393 242.85 36.2369 242.351 36.2369C241.479 36.2369 240.756 36.5574 240.183 37.2012C239.608 37.8449 239.322 38.6174 239.322 39.5239C239.322 40.4225 239.605 41.1713 240.175 41.7756C240.746 42.3799 241.471 42.6821 242.351 42.6821C243.042 42.6821 243.804 42.4666 244.642 42.0357C245.031 42.3905 245.63 42.5665 246.442 42.5665C248.841 42.5665 251.011 42.3852 252.953 42.0226L253.25 40.5328C251.652 40.8087 250.215 40.9742 248.941 41.0242C248.552 40.4225 248.357 39.8339 248.357 39.2664ZM242.351 41.2711C241.852 41.2633 241.442 41.0898 241.121 40.7535C240.801 40.4172 240.643 39.9994 240.643 39.4976C240.643 38.9721 240.809 38.528 241.142 38.1707C241.473 37.8134 241.899 37.6347 242.417 37.6347C242.806 37.6347 243.318 37.7477 243.956 37.971V40.0021C243.956 40.3384 243.983 40.6353 244.035 40.8954C243.481 41.1555 242.921 41.279 242.351 41.2711Z" fill="#B89669"/>
<path d="M298.516 44.4297L299.68 45.5569L300.82 44.4297L299.656 43.292L298.516 44.4297Z" fill="#B89669"/>
<path d="M309.525 37.02C308.952 36.4472 308.232 36.1582 307.371 36.1582C306.456 36.1582 305.713 36.4446 305.145 37.02C304.575 37.5954 304.291 38.3522 304.291 39.2928C304.291 39.7762 304.452 40.3727 304.769 41.0795H303.824H303.372C302.862 41.0795 302.484 40.977 302.231 40.7694C302.326 40.7274 302.468 40.6538 302.66 40.5487L302.907 39.1378C301.422 37.9738 300.361 37.2118 299.722 36.8519C299.084 36.4945 298.479 36.3158 297.909 36.3158C297.434 36.3158 296.861 36.4446 296.188 36.7047L296.459 37.9607C297.045 37.8319 297.462 37.7662 297.715 37.7662C298.172 37.7662 298.65 37.9028 299.152 38.1735C299.654 38.4441 300.424 38.9906 301.469 39.8104C299.622 40.6565 297.678 41.0795 295.631 41.0795C295.628 41.0795 295.626 41.0795 295.623 41.0795C295.621 41.0795 295.621 41.0795 295.618 41.0795H294.698C294.948 40.3543 295.074 39.6817 295.074 39.0589C295.074 38.2733 294.78 37.5954 294.194 37.02C293.608 36.4472 292.904 36.1582 292.084 36.1582C291.204 36.1582 290.479 36.4446 289.908 37.02C289.338 37.5954 289.054 38.3206 289.054 39.2008C289.054 39.7973 289.17 40.349 289.404 40.8588C289.06 41.0059 288.679 41.0795 288.264 41.0795H285.752H283.24H280.728H278.216H275.704H273.192H270.68H268.169H265.657H263.145H260.633H259.921V39.2402C259.921 38.3338 259.661 37.6059 259.138 37.0515C258.615 36.4998 257.94 36.2239 257.112 36.2239C256.232 36.2239 255.502 36.526 254.923 37.1304C254.345 37.7347 254.056 38.5019 254.056 39.4347C254.056 40.3832 254.335 41.1425 254.892 41.7127C255.449 42.2829 256.185 42.5666 257.099 42.5666H258.497C258.402 43.1263 258.05 43.5362 257.443 43.791C256.834 44.0459 255.943 44.172 254.771 44.172L254.926 45.3491C258.092 45.3491 259.755 44.4216 259.91 42.5666H260.636H263.148H265.659H268.171H270.683H273.195H275.707H278.219H280.731H283.242H285.754H288.266C288.965 42.5666 289.651 42.3564 290.324 41.9334C290.902 42.3564 291.632 42.5666 292.512 42.5666H295.618C295.621 42.5666 295.621 42.5666 295.623 42.5666C295.626 42.5666 295.628 42.5666 295.631 42.5666C296.632 42.5666 297.581 42.4589 298.479 42.2435C299.378 42.028 300.332 41.6812 301.341 41.2082C301.616 42.1147 302.289 42.5666 303.361 42.5666H303.826H306.737C307.867 42.5666 308.758 42.2645 309.41 41.6602C310.061 41.0558 310.387 40.2282 310.387 39.1746C310.387 38.3127 310.098 37.5928 309.525 37.02ZM258.531 41.1031C258.471 41.1031 258.279 41.111 257.956 41.1215C257.632 41.132 257.401 41.1399 257.262 41.1399C256.676 41.1399 256.208 40.9901 255.864 40.688C255.52 40.3858 255.347 39.9497 255.347 39.3795C255.347 38.8698 255.504 38.4573 255.819 38.1367C256.135 37.8188 256.526 37.6585 256.991 37.6585C257.448 37.6585 257.819 37.8109 258.105 38.1183C258.389 38.4257 258.534 38.833 258.534 39.3427V41.1031H258.531ZM293.364 41.0769H292.444C291.832 41.0769 291.348 40.9061 290.994 40.5645C290.639 40.2229 290.463 39.7762 290.463 39.2245C290.463 38.7147 290.615 38.3022 290.923 37.9869C291.23 37.6716 291.632 37.514 292.134 37.514C292.583 37.514 292.959 37.6874 293.261 38.0395C293.563 38.3916 293.713 38.7962 293.713 39.2639C293.713 39.7657 293.597 40.3701 293.364 41.0769ZM308.393 40.5803C308.004 40.9139 307.473 41.0795 306.801 41.0795H306.204C305.841 40.441 305.66 39.8288 305.66 39.2402C305.66 38.7752 305.823 38.3732 306.146 38.0369C306.469 37.7005 306.861 37.5324 307.318 37.5324C307.794 37.5324 308.188 37.69 308.503 38.0053C308.818 38.3206 308.976 38.72 308.976 39.2035C308.976 39.7868 308.782 40.2466 308.393 40.5803Z" fill="#B89669"/>
</svg>
