<svg width="225" height="112" viewBox="0 0 225 112" fill="none" xmlns="http://www.w3.org/2000/svg">
<path d="M114.641 15.6481L121.25 9.06404L112.151 0L103.132 8.9848L109.781 15.6085L79.1936 46.0781L94.1731 61L112.194 43.0489L130.214 61L145.194 46.0781L114.641 15.6481ZM112.151 4.97307L116.255 9.06139L112.228 13.0731L108.124 8.9848L112.151 4.97307ZM112.191 18.1809L140.196 46.0781L136.452 49.8073L112.191 25.6392L87.9294 49.8073L84.1859 46.0781L112.191 18.1809ZM112.191 38.0758L94.1705 56.0269L90.4269 52.2978L112.191 30.6175L133.955 52.2978L130.211 56.0269L112.191 38.0758Z" fill="#FBFAF8"/>
<path d="M6.08526 81.002H7.61971L13.7549 91.8719H10.326L9.16204 89.5991H4.56132L3.39734 91.8719H0L6.08526 81.002ZM8.19512 87.4419L6.86562 85.2007L5.55976 87.4419H8.19512Z" fill="#FBFAF8"/>
<path d="M14.4224 91.8719V81.002H19.9191C20.7835 81.002 21.5849 81.1806 22.3206 81.5406C23.0563 81.9006 23.6396 82.3866 24.0705 82.9988C24.5014 83.611 24.7142 84.2784 24.7142 84.9957C24.7142 85.5974 24.5644 86.165 24.2623 86.6931C23.9601 87.2238 23.5424 87.6758 23.009 88.0541L25.132 91.8692H21.3484L19.7351 88.9816H17.8565V91.8692H14.4224V91.8719ZM17.8591 86.5223H19.9663C20.4918 86.5223 20.9359 86.3725 21.3037 86.073C21.6716 85.7735 21.8555 85.4082 21.8555 84.9721C21.8555 84.5359 21.6716 84.1654 21.3037 83.858C20.9359 83.5506 20.4918 83.3982 19.9663 83.3982H17.8591V86.5223Z" fill="#FBFAF8"/>
<path d="M26.6453 81.002H30.082V85.1402L35.0926 81.002H39.8904L33.3007 86.4592L39.7827 91.8692H34.8824L30.886 88.5192L30.0846 89.2102V91.8692H26.6479V81.002H26.6453Z" fill="#FBFAF8"/>
<path d="M45.3555 81.002H46.89L53.0251 91.8719H49.5963L48.4323 89.5991H43.8316L42.6676 91.8719H39.2703L45.3555 81.002ZM47.4628 87.4419L46.1333 85.2007L44.8274 87.4419H47.4628Z" fill="#FBFAF8"/>
<path d="M53.5193 81.002H54.904L61.0864 86.1387V81.002H64.5232V91.8719H63.0991L56.9482 86.7194V91.8719H53.5193V81.002Z" fill="#FBFAF8"/>
<path d="M70.7922 81.002H74.229V84.8644H78.3646V81.002H81.7777V91.8719H78.3646V87.7362H74.229V91.8719H70.7922V81.002Z" fill="#FBFAF8"/>
<path d="M96.6441 86.4441C96.6441 87.1825 96.4733 87.8893 96.1291 88.5593C95.7849 89.2293 95.3225 89.8073 94.7366 90.2908C94.1506 90.7742 93.457 91.1579 92.653 91.4443C91.849 91.7306 91.0055 91.8725 90.1253 91.8725C89.2399 91.8725 88.3938 91.7306 87.5898 91.4443C86.7858 91.1579 86.0922 90.7742 85.5141 90.2908C84.9334 89.8073 84.4736 89.2319 84.1347 88.5593C83.7931 87.8893 83.6223 87.1825 83.6223 86.4441C83.6223 85.7111 83.7931 85.0069 84.1347 84.3369C84.4763 83.6669 84.9361 83.0862 85.5141 82.5975C86.0922 82.1088 86.7858 81.7226 87.5898 81.4335C88.3938 81.1445 89.2399 81 90.1253 81C91.3051 81 92.3955 81.2444 93.3966 81.7304C94.3976 82.2192 95.1911 82.8813 95.7718 83.7168C96.3525 84.555 96.6441 85.4641 96.6441 86.4441ZM92.3219 88.2729C92.9262 87.7605 93.231 87.1457 93.231 86.4284C93.231 85.7111 92.9289 85.0989 92.3219 84.5918C91.715 84.0873 90.9845 83.8324 90.1227 83.8324C89.2688 83.8324 88.5383 84.0847 87.9366 84.5918C87.3349 85.0989 87.0328 85.7111 87.0328 86.4284C87.0328 87.1457 87.335 87.7605 87.9419 88.2729C88.5488 88.7852 89.274 89.0401 90.1253 89.0401C90.9845 89.0401 91.7176 88.7852 92.3219 88.2729Z" fill="#FBFAF8"/>
<path d="M98.4465 81.002H101.883V89H108.662V91.8719H98.4465V81.002Z" fill="#FBFAF8"/>
<path d="M110.346 81.002H115.184C116.069 81.002 116.915 81.1438 117.719 81.4302C118.523 81.7166 119.217 82.1002 119.8 82.5863C120.383 83.0724 120.846 83.6505 121.187 84.3205C121.532 84.9905 121.702 85.6946 121.702 86.4277C121.702 87.166 121.532 87.8728 121.187 88.5428C120.843 89.2128 120.381 89.7935 119.8 90.2822C119.219 90.7709 118.526 91.1572 117.719 91.4436C116.915 91.73 116.069 91.8719 115.184 91.8719H110.346V81.002ZM115.197 89.0552C116.051 89.0552 116.781 88.803 117.383 88.2959C117.985 87.7887 118.287 87.1818 118.287 86.475C118.287 85.7735 117.985 85.1691 117.378 84.6673C116.773 84.1628 116.045 83.9132 115.194 83.9132H113.746V89.0578H115.197V89.0552Z" fill="#FBFAF8"/>
<path d="M123.534 81.002H126.97V91.8719H123.534V81.002Z" fill="#FBFAF8"/>
<path d="M129.364 81.002H130.749L136.931 86.1387V81.002H140.368V91.8719H138.944L132.793 86.7194V91.8719H129.364V81.002Z" fill="#FBFAF8"/>
<path d="M148.529 86.0286H155.048V86.4306C155.048 87.1637 154.877 87.8652 154.536 88.5353C154.194 89.2026 153.737 89.7807 153.164 90.2668C152.589 90.7529 151.905 91.1391 151.107 91.4307C150.311 91.7224 149.47 91.8695 148.59 91.8748H148.574H148.558H148.542H148.526C147.641 91.8748 146.795 91.7329 145.991 91.4465C145.187 91.1601 144.493 90.7765 143.915 90.293C143.335 89.8096 142.875 89.2342 142.536 88.5615C142.194 87.8915 142.023 87.1847 142.023 86.4464V86.4306V86.4149C142.029 85.6818 142.202 84.9803 142.546 84.3103C142.891 83.6429 143.35 83.0675 143.931 82.584C144.509 82.1005 145.2 81.7169 146.004 81.4332C146.808 81.1494 147.649 81.0049 148.529 81.0049H148.545H148.561H148.576H148.592H148.608H148.624H148.639H148.671H148.687H148.71H148.726H148.742H148.758H148.773H148.821H148.837C148.847 81.0049 148.863 81.0101 148.884 81.0206H148.9H148.931H148.994H149.01C150.61 81.1152 151.982 81.6355 153.125 82.5787C153.23 82.6681 153.427 82.8573 153.716 83.1463L150.741 84.6098L150.702 84.5783C150.071 84.0948 149.349 83.8557 148.532 83.8557C147.699 83.8557 146.976 84.1027 146.369 84.5993C145.76 85.0959 145.458 85.7081 145.458 86.4359C145.458 87.1637 145.765 87.7785 146.382 88.2804C147 88.7822 147.715 89.0318 148.534 89.0318C149.044 89.0318 149.522 88.9346 149.974 88.7402C150.426 88.5458 150.789 88.2804 151.067 87.9467H148.534V86.0286H148.529Z" fill="#FBFAF8"/>
<path d="M166.094 86.0286H172.613V86.4306C172.613 87.1637 172.442 87.8652 172.1 88.5353C171.759 89.2026 171.301 89.7807 170.729 90.2668C170.153 90.7529 169.47 91.1391 168.671 91.4307C167.875 91.7224 167.034 91.8695 166.154 91.8748H166.138H166.123H166.107H166.091C165.206 91.8748 164.36 91.7329 163.556 91.4465C162.752 91.1601 162.058 90.7765 161.48 90.293C160.899 89.8096 160.439 89.2342 160.1 88.5615C159.759 87.8915 159.588 87.1847 159.588 86.4464V86.4306V86.4149C159.593 85.6818 159.767 84.9803 160.111 84.3103C160.455 83.6429 160.915 83.0675 161.496 82.584C162.074 82.1005 162.765 81.7169 163.569 81.4332C164.37 81.1468 165.214 81.0049 166.094 81.0049H166.11H166.125H166.141H166.157H166.173H166.188H166.204H166.236H166.251H166.275H166.291H166.307H166.322H166.338H166.385H166.401C166.412 81.0049 166.427 81.0101 166.448 81.0206H166.464H166.496H166.559H166.575C168.175 81.1152 169.546 81.6355 170.689 82.5787C170.794 82.6681 170.991 82.8573 171.28 83.1463L168.306 84.6098L168.267 84.5783C167.636 84.0948 166.914 83.8557 166.096 83.8557C165.264 83.8557 164.541 84.1027 163.934 84.5993C163.324 85.0959 163.022 85.7081 163.022 86.4359C163.022 87.1637 163.33 87.7785 163.947 88.2804C164.565 88.7822 165.279 89.0318 166.099 89.0318C166.609 89.0318 167.087 88.9346 167.539 88.7402C167.991 88.5458 168.353 88.2804 168.632 87.9467H166.099V86.0286H166.094Z" fill="#FBFAF8"/>
<path d="M173.753 91.8719V81.002H179.25C180.114 81.002 180.915 81.1806 181.654 81.5406C182.389 81.9006 182.973 82.3866 183.404 82.9988C183.835 83.611 184.047 84.2784 184.047 84.9957C184.047 85.5974 183.898 86.165 183.595 86.6931C183.293 87.2238 182.876 87.6758 182.342 88.0541L184.465 91.8692H180.682L179.068 88.9816H177.19V91.8692H173.753V91.8719ZM177.19 86.5223H179.297C179.822 86.5223 180.266 86.3725 180.634 86.073C181.002 85.7735 181.183 85.4082 181.183 84.9721C181.183 84.5359 181 84.1654 180.634 83.858C180.266 83.5506 179.822 83.3982 179.297 83.3982H177.19V86.5223Z" fill="#FBFAF8"/>
<path d="M198.393 86.4441C198.393 87.1825 198.223 87.8893 197.878 88.5593C197.534 89.2293 197.072 89.8073 196.486 90.2908C195.9 90.7742 195.206 91.1579 194.402 91.4443C193.598 91.7306 192.755 91.8725 191.875 91.8725C190.989 91.8725 190.143 91.7306 189.339 91.4443C188.535 91.1579 187.841 90.7742 187.263 90.2908C186.683 89.8073 186.223 89.2319 185.884 88.5593C185.542 87.8893 185.372 87.1825 185.372 86.4441C185.372 85.7111 185.542 85.0069 185.884 84.3369C186.226 83.6669 186.685 83.0862 187.263 82.5975C187.841 82.1088 188.535 81.7226 189.339 81.4335C190.143 81.1445 190.989 81 191.875 81C193.054 81 194.145 81.2444 195.146 81.7304C196.147 82.2192 196.94 82.8813 197.521 83.7168C198.102 84.5524 198.393 85.4641 198.393 86.4441ZM194.074 88.2729C194.678 87.7605 194.983 87.1457 194.983 86.4284C194.983 85.7111 194.681 85.0989 194.074 84.5918C193.467 84.0873 192.736 83.8324 191.875 83.8324C191.021 83.8324 190.29 84.0847 189.689 84.5918C189.087 85.0989 188.785 85.7111 188.785 86.4284C188.785 87.1457 189.087 87.7605 189.694 88.2729C190.301 88.7852 191.026 89.0401 191.877 89.0401C192.734 89.0401 193.467 88.7852 194.074 88.2729Z" fill="#FBFAF8"/>
<path d="M205.175 91.8719C204.232 91.8719 203.362 91.6827 202.571 91.3017C201.78 90.9207 201.158 90.4031 200.703 89.7436C200.248 89.0867 200.022 88.3668 200.022 87.5838V81.002H203.467V87.5391C203.467 87.928 203.633 88.2591 203.966 88.5376C204.3 88.8161 204.702 88.9554 205.172 88.9554C205.64 88.9554 206.039 88.8161 206.376 88.5376C206.712 88.2591 206.88 87.928 206.88 87.5391V81.002H210.317V87.5838C210.317 88.3642 210.086 89.0841 209.626 89.7436C209.163 90.4005 208.538 90.9207 207.75 91.3017C206.962 91.6801 206.102 91.8719 205.175 91.8719Z" fill="#FBFAF8"/>
<path d="M212.613 81.002H218.11C218.974 81.002 219.776 81.1806 220.514 81.5406C221.25 81.9006 221.833 82.3866 222.264 82.9988C222.695 83.611 222.908 84.2784 222.908 84.9957C222.908 85.713 222.695 86.3804 222.272 86.9926C221.846 87.6048 221.271 88.0909 220.54 88.4482C219.813 88.8056 219.022 88.9843 218.173 88.9843H216.05V91.8719H212.613V81.002ZM218.16 86.5223C218.685 86.5223 219.129 86.3725 219.497 86.073C219.865 85.7735 220.046 85.4082 220.046 84.9721C220.046 84.5359 219.862 84.1654 219.497 83.858C219.129 83.5506 218.685 83.3982 218.16 83.3982H216.053V86.5197H218.16V86.5223Z" fill="#FBFAF8"/>
<path d="M3.05321 99.7995L4.12785 100.848L5.26555 99.7076L4.11471 98.583L3.05321 99.6182L1.99171 98.583L0.854004 99.7076L2.00484 100.848L3.05321 99.7995Z" fill="#B89669"/>
<path d="M13.6944 99.5793L12.5278 98.4521L11.3901 99.5793L12.5541 100.72L13.6944 99.5793Z" fill="#B89669"/>
<path d="M20.5679 105.236C20.5679 106.245 20.0845 106.749 19.1176 106.749C19.115 106.749 19.1123 106.749 19.1123 106.749C19.1097 106.749 19.1071 106.749 19.1071 106.749C18.5448 106.749 18.014 106.576 17.5148 106.232C17.549 106.069 17.5674 105.882 17.5674 105.675L17.5805 104.547C17.5884 103.701 17.323 103.01 16.7844 102.477C16.2457 101.941 15.5573 101.673 14.7192 101.673C14.0728 101.673 13.3975 101.781 12.6934 101.996C11.9892 102.212 10.9986 102.606 9.72169 103.173V101.762L8.31073 101.957L8.32387 106.747H7.12048C6.7395 106.747 6.46361 106.652 6.29283 106.463C6.11941 106.274 6.0327 105.958 6.0327 105.517L6.01957 101.258L4.62174 101.452V102.217C4.05946 102.009 3.52871 101.907 3.02949 101.907C2.15716 101.907 1.43461 102.227 0.861814 102.871C0.289023 103.515 0 104.287 0 105.194C0 106.092 0.283768 106.841 0.853932 107.446C1.4241 108.05 2.14928 108.352 3.02949 108.352C3.72052 108.352 4.48249 108.137 5.32066 107.706C5.70952 108.06 6.30859 108.236 7.12048 108.236H8.9965H14.6929C15.7623 108.236 16.5426 107.942 17.0366 107.356C17.6488 107.942 18.3398 108.236 19.1071 108.236C20.0556 108.236 20.7703 108.016 21.2485 107.577C21.7267 107.138 21.9658 106.502 21.9658 105.675V101.765L20.5548 101.959L20.5679 105.236ZM3.02686 106.944C2.52501 106.936 2.11512 106.762 1.7972 106.426C1.47665 106.09 1.31899 105.672 1.31899 105.17C1.31899 104.645 1.48453 104.201 1.81822 103.843C2.14929 103.486 2.57493 103.307 3.09255 103.307C3.48141 103.307 3.99378 103.42 4.63226 103.644V105.675C4.63226 106.011 4.65853 106.308 4.71108 106.568C4.15668 106.828 3.59702 106.952 3.02686 106.944ZM16.1669 105.378C16.1669 105.817 16.0408 106.155 15.7859 106.395C15.5311 106.631 15.1711 106.749 14.706 106.749H9.72169V104.406C11.1458 103.862 12.139 103.512 12.6986 103.357C13.2583 103.202 13.8285 103.123 14.4065 103.123C14.9241 103.123 15.3471 103.27 15.6756 103.565C16.004 103.859 16.1669 104.243 16.1669 104.716V105.378Z" fill="#B89669"/>
<path d="M19.4014 110.217L20.568 111.344L21.7057 110.217L20.5417 109.079L19.4014 110.217Z" fill="#B89669"/>
<path d="M65.4059 99.8393L66.4806 100.888L67.6183 99.7473L66.4674 98.6201L65.4059 99.658L64.3444 98.6201L63.2041 99.7473L64.3576 100.888L65.4059 99.8393Z" fill="#B89669"/>
<path d="M70.5584 105.184C70.5584 106.227 70.0802 106.75 69.1212 106.75C69.1185 106.75 69.1159 106.75 69.1133 106.75C69.1107 106.75 69.1107 106.75 69.108 106.75C68.4617 106.75 67.9125 106.721 67.4632 106.66C68.0938 106.074 68.4091 105.383 68.4091 104.59C68.4091 103.823 68.1359 103.171 67.5867 102.635C67.0376 102.099 66.3413 101.834 65.4952 101.834C64.6571 101.834 63.9608 102.099 63.4038 102.63C62.8467 103.161 62.5682 103.817 62.5682 104.603C62.5682 105.415 62.8835 106.109 63.5141 106.687C63.0832 106.729 62.5183 106.752 61.8194 106.752H59.3075H56.7956H54.2838H51.7719H49.26H46.7481H44.2363H41.7244H39.2125H36.7006H34.1888H31.6769H29.165H26.6531C26.6505 106.752 26.6479 106.752 26.6479 106.752C26.6453 106.752 26.6426 106.752 26.6426 106.752C25.6836 106.752 25.2054 106.229 25.2054 105.186V98.791L23.7944 98.9854L23.8076 105.599C23.8076 107.359 24.7561 108.239 26.6558 108.239H29.1676H31.6795H34.1914H36.7033H39.2151H41.727H44.2389H46.7508H49.2626H51.7745H54.2864H56.7983H59.3101H61.822C63.2882 108.239 64.5362 108.066 65.5636 107.722C66.6934 108.066 67.8758 108.239 69.1107 108.239C71.0182 108.239 71.972 107.359 71.972 105.599V98.791L70.5742 98.9854L70.5584 105.184ZM66.6145 105.806C66.3255 106.135 65.9445 106.384 65.469 106.558C65.0039 106.411 64.6308 106.174 64.3497 105.846C64.0685 105.517 63.9293 105.155 63.9293 104.758C63.9293 104.301 64.0711 103.928 64.3575 103.639C64.6413 103.35 65.0092 103.205 65.4585 103.205C65.9078 103.205 66.2835 103.352 66.5909 103.647C66.8983 103.941 67.0507 104.311 67.0507 104.761C67.0481 105.129 66.9036 105.478 66.6145 105.806Z" fill="#B89669"/>
<path d="M74.0662 108.239H75.4771V98.7881L74.0662 98.9825V108.239Z" fill="#B89669"/>
<path d="M85.987 106.828C85.987 107.753 85.7926 108.434 85.4037 108.872C85.0148 109.311 84.4236 109.532 83.6301 109.532C82.8629 109.532 82.2717 109.34 81.8566 108.956C81.4414 108.573 81.2313 108 81.2234 107.241C81.2234 106.523 81.3653 105.73 81.6517 104.858L80.5113 104.547C80.1303 105.704 79.9412 106.731 79.9412 107.629C79.9412 108.751 80.2591 109.597 80.9002 110.168C81.5387 110.738 82.4373 111.022 83.5934 111.022C84.8624 111.022 85.811 110.664 86.4416 109.947C87.0722 109.23 87.3875 108.247 87.3875 106.996V101.768L85.9896 101.962V106.828H85.987Z" fill="#B89669"/>
<path d="M84.6915 101.909L83.5275 100.782L82.3872 101.909L83.5538 103.047L84.6915 101.909Z" fill="#B89669"/>
<path d="M141.078 103.397C140.5 102.905 139.732 102.659 138.773 102.659H136.755L140.263 98.8145L138.905 98.0762L135.1 102.645L135.851 103.954H138.894C139.404 103.954 139.803 104.08 140.098 104.335C140.392 104.59 140.536 104.931 140.536 105.365C140.536 105.796 140.387 106.135 140.09 106.382C139.793 106.629 139.388 106.75 138.878 106.75H134.853H132.341H129.829H127.317H124.806H122.294H119.782H117.27H114.758H112.246H109.734H107.222H104.711H102.199H99.6868H97.1749H94.6631H92.1512C92.1486 106.75 92.1459 106.75 92.1459 106.75C92.1433 106.75 92.1407 106.75 92.1407 106.75C91.1816 106.75 90.7034 106.227 90.7034 105.184V98.7882L89.2925 98.9826L89.3056 105.596C89.3056 107.356 90.2541 108.237 92.1538 108.237H94.6657H97.1775H99.6894H102.201H104.713H107.225H109.737H112.249H114.761H117.273H119.784H122.296H124.808H127.32H129.832H132.344H134.856H138.947C139.869 108.237 140.602 107.982 141.141 107.472C141.679 106.962 141.95 106.263 141.95 105.375C141.945 104.55 141.656 103.888 141.078 103.397Z" fill="#B89669"/>
<path d="M144.236 107.85C144.236 109.18 143.516 109.844 142.073 109.844L142.189 111.022C143.345 111.022 144.207 110.772 144.772 110.278C145.337 109.781 145.62 108.991 145.62 107.903V101.768L144.223 101.962L144.236 107.85Z" fill="#B89669"/>
<path d="M147.51 108.239H148.92V100.406L147.51 100.601V108.239Z" fill="#B89669"/>
<path d="M147.938 98.2968C147.938 98.1496 147.993 98.0288 148.106 97.9342C148.219 97.8396 148.361 97.7923 148.534 97.7923C148.75 97.7923 149.026 97.858 149.362 97.9867V97.2353C148.965 97.0724 148.611 96.9883 148.3 96.9883C147.956 96.9883 147.667 97.096 147.439 97.3115C147.21 97.5269 147.094 97.8002 147.094 98.126C147.094 98.394 147.155 98.6305 147.276 98.838H146.629V99.7445H149.606L149.801 98.838H148.132C148.004 98.6856 147.938 98.5043 147.938 98.2968Z" fill="#B89669"/>
<path d="M156.377 99.7995L157.452 100.848L158.59 99.7076L157.439 98.583L156.377 99.6182L155.316 98.583L154.176 99.7076L155.329 100.848L156.377 99.7995Z" fill="#B89669"/>
<path d="M162.357 104.938C162.357 104.439 162.531 104.037 162.875 103.735C163.219 103.433 163.669 103.283 164.22 103.283C164.625 103.283 165.221 103.396 166.007 103.619L166.396 102.416C165.369 102.072 164.567 101.898 163.989 101.898C163.125 101.898 162.413 102.156 161.848 102.676C161.283 103.194 160.999 103.858 160.999 104.67C160.999 105.361 161.186 106.052 161.556 106.741C161.322 106.749 160.952 106.754 160.442 106.754C160.061 106.754 159.785 106.659 159.614 106.47C159.441 106.281 159.354 105.966 159.354 105.524L159.341 101.26L157.943 101.454V102.219C157.381 102.011 156.85 101.909 156.351 101.909C155.479 101.909 154.756 102.229 154.183 102.873C153.608 103.517 153.322 104.289 153.322 105.196C153.322 106.094 153.605 106.843 154.175 107.447C154.746 108.052 155.471 108.354 156.351 108.354C157.042 108.354 157.804 108.139 158.642 107.708C159.031 108.062 159.63 108.238 160.442 108.238C162.841 108.238 165.011 108.057 166.953 107.694L167.25 106.205C165.652 106.481 164.215 106.646 162.941 106.696C162.552 106.094 162.357 105.506 162.357 104.938ZM156.351 106.943C155.852 106.935 155.442 106.762 155.121 106.425C154.801 106.089 154.643 105.671 154.643 105.169C154.643 104.644 154.809 104.2 155.142 103.843C155.473 103.485 155.899 103.307 156.417 103.307C156.806 103.307 157.318 103.42 157.956 103.643V105.674C157.956 106.01 157.983 106.307 158.035 106.567C157.481 106.827 156.921 106.951 156.351 106.943Z" fill="#B89669"/>
<path d="M212.516 110.102L213.68 111.229L214.82 110.102L213.656 108.964L212.516 110.102Z" fill="#B89669"/>
<path d="M223.525 102.692C222.952 102.119 222.232 101.83 221.371 101.83C220.456 101.83 219.713 102.116 219.145 102.692C218.575 103.267 218.291 104.024 218.291 104.965C218.291 105.448 218.452 106.045 218.769 106.751H217.824H217.372C216.862 106.751 216.484 106.649 216.231 106.441C216.326 106.399 216.468 106.326 216.66 106.221L216.907 104.81C215.422 103.646 214.361 102.884 213.722 102.524C213.084 102.166 212.479 101.988 211.909 101.988C211.434 101.988 210.861 102.116 210.188 102.377L210.459 103.633C211.045 103.504 211.462 103.438 211.715 103.438C212.172 103.438 212.65 103.575 213.152 103.845C213.654 104.116 214.424 104.663 215.469 105.482C213.622 106.328 211.678 106.751 209.631 106.751C209.628 106.751 209.626 106.751 209.623 106.751C209.621 106.751 209.621 106.751 209.618 106.751H208.698C208.948 106.026 209.074 105.354 209.074 104.731C209.074 103.945 208.78 103.267 208.194 102.692C207.608 102.119 206.904 101.83 206.084 101.83C205.204 101.83 204.479 102.116 203.908 102.692C203.338 103.267 203.054 103.992 203.054 104.873C203.054 105.469 203.17 106.021 203.404 106.531C203.06 106.678 202.679 106.751 202.264 106.751H199.752H197.24H194.728H192.216H189.704H187.192H184.68H182.169H179.657H177.145H174.633H173.921V104.912C173.921 104.006 173.661 103.278 173.138 102.723C172.615 102.172 171.94 101.896 171.112 101.896C170.232 101.896 169.502 102.198 168.923 102.802C168.345 103.407 168.056 104.174 168.056 105.107C168.056 106.055 168.335 106.814 168.892 107.385C169.449 107.955 170.185 108.239 171.099 108.239H172.497C172.402 108.798 172.05 109.208 171.443 109.463C170.834 109.718 169.943 109.844 168.771 109.844L168.926 111.021C172.092 111.021 173.755 110.094 173.91 108.239H174.636H177.148H179.659H182.171H184.683H187.195H189.707H192.219H194.731H197.242H199.754H202.266C202.965 108.239 203.651 108.028 204.324 107.605C204.902 108.028 205.632 108.239 206.512 108.239H209.618C209.621 108.239 209.621 108.239 209.623 108.239C209.626 108.239 209.628 108.239 209.631 108.239C210.632 108.239 211.581 108.131 212.479 107.915C213.378 107.7 214.332 107.353 215.341 106.88C215.616 107.787 216.289 108.239 217.361 108.239H217.826H220.737C221.867 108.239 222.758 107.936 223.41 107.332C224.061 106.728 224.387 105.9 224.387 104.846C224.387 103.985 224.098 103.265 223.525 102.692ZM172.531 106.775C172.471 106.775 172.279 106.783 171.956 106.793C171.632 106.804 171.401 106.812 171.262 106.812C170.676 106.812 170.208 106.662 169.864 106.36C169.52 106.058 169.347 105.622 169.347 105.051C169.347 104.542 169.504 104.129 169.819 103.809C170.135 103.491 170.526 103.33 170.991 103.33C171.448 103.33 171.819 103.483 172.105 103.79C172.389 104.098 172.534 104.505 172.534 105.015V106.775H172.531ZM207.364 106.749H206.444C205.832 106.749 205.348 106.578 204.994 106.236C204.639 105.895 204.463 105.448 204.463 104.896C204.463 104.387 204.615 103.974 204.923 103.659C205.23 103.344 205.632 103.186 206.134 103.186C206.583 103.186 206.959 103.359 207.261 103.711C207.563 104.063 207.713 104.468 207.713 104.936C207.713 105.438 207.597 106.042 207.364 106.749ZM222.393 106.252C222.004 106.586 221.473 106.751 220.801 106.751H220.204C219.841 106.113 219.66 105.501 219.66 104.912C219.66 104.447 219.823 104.045 220.146 103.709C220.469 103.372 220.861 103.204 221.318 103.204C221.794 103.204 222.188 103.362 222.503 103.677C222.818 103.992 222.976 104.392 222.976 104.875C222.976 105.459 222.782 105.918 222.393 106.252Z" fill="#B89669"/>
</svg>
