<svg width="96" height="96" viewBox="0 0 96 96" fill="none" xmlns="http://www.w3.org/2000/svg">
<rect width="96" height="96" rx="8" fill="#0E1C33"/>
<path d="M50.4471 33.1481L57.0566 26.564L47.9576 17.5L38.9381 26.4848L45.5874 33.1085L15 63.5781L29.9795 78.5L48 60.5489L66.0205 78.5L81 63.5781L50.4471 33.1481ZM47.9576 22.4731L52.0617 26.5614L48.0345 30.5731L43.9303 26.4848L47.9576 22.4731ZM47.9974 35.6809L76.0024 63.5781L72.2589 67.3073L47.9974 43.1392L23.7358 67.3073L19.9923 63.5781L47.9974 35.6809ZM47.9974 55.5758L29.9769 73.5269L26.2333 69.7978L47.9974 48.1175L69.7614 69.7978L66.0178 73.5269L47.9974 55.5758Z" fill="#FBFAF8"/>
</svg>
